<svg width="40" height="40" viewBox="0 0 40 40" fill="none" xmlns="http://www.w3.org/2000/svg">
  <rect width="40" height="40" rx="8" fill="url(#instagram-gradient)"/>
  <defs>
    <linearGradient id="instagram-gradient" x1="0%" y1="0%" x2="100%" y2="100%">
      <stop offset="0%" style="stop-color:#833AB4"/>
      <stop offset="50%" style="stop-color:#FD1D1D"/>
      <stop offset="100%" style="stop-color:#FCB045"/>
    </linearGradient>
  </defs>
  <path d="M20 14C16.7 14 14 16.7 14 20C14 23.3 16.7 26 20 26C23.3 26 26 23.3 26 20C26 16.7 23.3 14 20 14ZM20 24C17.8 24 16 22.2 16 20C16 17.8 17.8 16 20 16C22.2 16 24 17.8 24 20C24 22.2 22.2 24 20 24ZM26.5 12C25.7 12 25 12.7 25 13.5C25 14.3 25.7 15 26.5 15C27.3 15 28 14.3 28 13.5C28 12.7 27.3 12 26.5 12ZM30 15C30 13.3 29.3 11.8 28.2 10.8C27.2 9.7 25.7 9 24 9H16C14.3 9 12.8 9.7 11.8 10.8C10.7 11.8 10 13.3 10 15V25C10 26.7 10.7 28.2 11.8 29.2C12.8 30.3 14.3 31 16 31H24C25.7 31 27.2 30.3 28.2 29.2C29.3 28.2 30 26.7 30 25V15ZM28 25C28 25.5 27.8 26 27.5 26.5C27 27.2 26.5 28 24 28H16C15.5 28 15 27.8 14.5 27.5C13.8 27 13 26.5 13 24V16C13 15.5 13.2 15 13.5 14.5C14 13.8 14.5 13 16 13H24C24.5 13 25 13.2 25.5 13.5C26.2 14 27 14.5 27 16V24C27.8 24.2 28 24.5 28 25Z" fill="white"/>
</svg>
