<svg width="40" height="40" viewBox="0 0 40 40" fill="none" xmlns="http://www.w3.org/2000/svg">
  <rect width="40" height="40" rx="8" fill="#5865F2"/>
  <path d="M28.5 13.5C27.25 12.9 25.9 12.45 24.5 12.15C24.35 12.4 24.15 12.8 24.05 13.1C22.55 12.85 21.05 12.85 19.55 13.1C19.45 12.8 19.25 12.4 19.1 12.15C17.7 12.45 16.35 12.9 15.1 13.5C12.6 17.25 11.9 20.9 12.25 24.5C14 25.75 15.7 26.5 17.35 27C17.8 26.35 18.2 25.65 18.55 24.9C17.85 24.65 17.2 24.35 16.55 24C16.7 23.9 16.85 23.8 17 23.7C20.05 25.1 23.45 25.1 26.5 23.7C26.65 23.8 26.8 23.9 26.95 24C26.3 24.35 25.65 24.65 24.95 24.9C25.3 25.65 25.7 26.35 26.15 27C27.8 26.5 29.5 25.75 31.25 24.5C31.65 20.4 30.65 16.8 28.5 13.5ZM18.25 22.25C17.25 22.25 16.45 21.35 16.45 20.25C16.45 19.15 17.2 18.25 18.25 18.25C19.3 18.25 20.1 19.15 20.05 20.25C20.05 21.35 19.3 22.25 18.25 22.25ZM25.25 22.25C24.25 22.25 23.45 21.35 23.45 20.25C23.45 19.15 24.2 18.25 25.25 18.25C26.3 18.25 27.1 19.15 27.05 20.25C27.05 21.35 26.3 22.25 25.25 22.25Z" fill="white"/>
</svg>
