<svg width="40" height="40" viewBox="0 0 40 40" fill="none" xmlns="http://www.w3.org/2000/svg">
  <rect width="40" height="40" rx="8" fill="#000000"/>
  <path d="M24.5 12.5C24.5 12.5 24.5 14.5 26.5 15.5C27.5 16 28.5 16 29.5 16V19C28.5 19 27.5 19 26.5 18.5C25.5 18 24.5 17.5 24.5 16.5V22.5C24.5 25.5 22 28 19 28C16 28 13.5 25.5 13.5 22.5C13.5 19.5 16 17 19 17C19.5 17 20 17 20.5 17.5V20.5C20 20 19.5 20 19 20C17.5 20 16.5 21 16.5 22.5C16.5 24 17.5 25 19 25C20.5 25 21.5 24 21.5 22.5V10H24.5V12.5Z" fill="white"/>
</svg>
