<svg width="16" height="16" viewBox="0 0 16 16" fill="none" xmlns="http://www.w3.org/2000/svg">
  <path d="M8 0C3.6 0 0 3.6 0 8C0 12.4 3.6 16 8 16C12.4 16 16 12.4 16 8C16 3.6 12.4 0 8 0ZM14.4 8C14.4 8.4 14.3 8.8 14.2 9.2H12.8C12.9 8.8 13 8.4 13 8C13 7.6 12.9 7.2 12.8 6.8H14.2C14.3 7.2 14.4 7.6 14.4 8ZM11.2 8C11.2 8.4 11.1 8.8 11 9.2H9.2C9.1 8.8 9 8.4 9 8C9 7.6 9.1 7.2 9.2 6.8H11C11.1 7.2 11.2 7.6 11.2 8ZM8 14.4C7.6 14.4 7.2 13.8 6.9 12.8H9.1C8.8 13.8 8.4 14.4 8 14.4ZM6.8 11.2C6.9 10.8 7 10.4 7 10H9C9 10.4 9.1 10.8 9.2 11.2H6.8ZM6.8 4.8H9.2C9.1 4.4 9 4 9 3.6H7C7 4 6.9 4.4 6.8 4.8ZM8 1.6C8.4 1.6 8.8 2.2 9.1 3.2H6.9C7.2 2.2 7.6 1.6 8 1.6ZM4.8 8C4.8 7.6 4.9 7.2 5 6.8H6.8C6.9 7.2 7 7.6 7 8C7 8.4 6.9 8.8 6.8 9.2H5C4.9 8.8 4.8 8.4 4.8 8ZM1.6 8C1.6 7.6 1.7 7.2 1.8 6.8H3.2C3.1 7.2 3 7.6 3 8C3 8.4 3.1 8.8 3.2 9.2H1.8C1.7 8.8 1.6 8.4 1.6 8Z" fill="currentColor"/>
</svg>
